<?xml version="1.0" encoding="UTF-8"?>
<svg version="1.1" xmlns="http://www.w3.org/2000/svg" width="48" height="48">
<path d="M0 0 C15.84 0 31.68 0 48 0 C48 15.84 48 31.68 48 48 C32.16 48 16.32 48 0 48 C0 32.16 0 16.32 0 0 Z " fill="#E7E7E8" transform="translate(0,0)"/>
<path d="M0 0 C2 3 2 3 2 5 C2.66 5 3.32 5 4 5 C4.63019694 14.17286652 4.63019694 14.17286652 2 17.625 C1.01 18.305625 1.01 18.305625 0 19 C3.08809695 20.76462683 4.23312136 21 8 21 C8.66 21.33 9.32 21.66 10 22 C10.144375 21.2575 10.28875 20.515 10.4375 19.75 C10.623125 18.8425 10.80875 17.935 11 17 C11.061875 16.319375 11.12375 15.63875 11.1875 14.9375 C12.50213354 11.80260463 15.16701545 10.68773548 18 9 C19 10 19 10 19.11352539 12.31665039 C19.10828857 13.31688232 19.10305176 14.31711426 19.09765625 15.34765625 C19.09515869 16.31968994 19.09266113 17.29172363 19.09008789 18.29321289 C19.08098389 19.53707764 19.07187988 20.78094238 19.0625 22.0625 C19.041875 26.001875 19.02125 29.94125 19 34 C8.44 34 -2.12 34 -13 34 C-12.34 32.02 -11.68 30.04 -11 28 C-10.34 28 -9.68 28 -9 28 C-9.33 27.34 -9.66 26.68 -10 26 C-10.99 25.71125 -11.98 25.4225 -13 25.125 C-13.99 24.75375 -14.98 24.3825 -16 24 C-16.33 22.68 -16.66 21.36 -17 20 C-13.37 20 -9.74 20 -6 20 C-5.773125 19.071875 -5.54625 18.14375 -5.3125 17.1875 C-4 14 -4 14 -1.375 12.5 C-0.59125 12.005 0.1925 11.51 1 11 C1.41746608 7.87364791 1.41746608 7.87364791 1 5 C0.01 4.67 -0.98 4.34 -2 4 C-1.34 2.68 -0.68 1.36 0 0 Z " fill="#C9CACE" transform="translate(29,14)"/>
<path d="M0 0 C4.29 0 8.58 0 13 0 C13 7.92 13 15.84 13 24 C11.02 24.99 11.02 24.99 9 26 C8.67 26.66 8.34 27.32 8 28 C7.67 28.33 7.34 28.66 7 29 C5.98034573 31.32481174 4.97940398 33.65794699 4 36 C3.21625 35.814375 2.4325 35.62875 1.625 35.4375 C-0.97089775 34.74037734 -0.97089775 34.74037734 -3 36 C-3 35.34 -3 34.68 -3 34 C-4.65 34 -6.3 34 -8 34 C-7.36578125 33.80664062 -6.7315625 33.61328125 -6.078125 33.4140625 C-3.67611298 32.1088608 -3.67611298 32.1088608 -3.171875 28.9609375 C-3.03265625 27.77757813 -2.8934375 26.59421875 -2.75 25.375 C-2.60046875 24.18648437 -2.4509375 22.99796875 -2.296875 21.7734375 C-2.19890625 20.85820312 -2.1009375 19.94296875 -2 19 C-2.66 19 -3.32 19 -4 19 C-4.66 18.34 -5.32 17.68 -6 17 C-6.66 17.33 -7.32 17.66 -8 18 C-8.33 16.35 -8.66 14.7 -9 13 C-8.01 12.67 -7.02 12.34 -6 12 C-5.6278958 10.67696283 -5.29369827 9.34262065 -5 8 C-4.34 7.67 -3.68 7.34 -3 7 C-1.69364726 4.69467163 -0.84142926 2.52428777 0 0 Z " fill="#D9D9DC" transform="translate(35,0)"/>
<path d="M0 0 C2 2 2 2 2.1953125 4.8203125 C2.17210938 5.91085938 2.14890625 7.00140625 2.125 8.125 C2.10695313 9.22070312 2.08890625 10.31640625 2.0703125 11.4453125 C2.04710938 12.28835937 2.02390625 13.13140625 2 14 C1.360625 14.28875 0.72125 14.5775 0.0625 14.875 C-2.15206079 15.82823451 -2.15206079 15.82823451 -3 18 C-3.33 18.33 -3.66 18.66 -4 19 C-5.01965427 21.32481174 -6.02059602 23.65794699 -7 26 C-7.78375 25.814375 -8.5675 25.62875 -9.375 25.4375 C-11.97089775 24.74037734 -11.97089775 24.74037734 -14 26 C-14 25.34 -14 24.68 -14 24 C-15.65 24 -17.3 24 -19 24 C-18.36578125 23.79632813 -17.7315625 23.59265625 -17.078125 23.3828125 C-14.70935435 22.12778129 -14.70935435 22.12778129 -14.171875 19.1796875 C-13.96304688 17.54386719 -13.96304688 17.54386719 -13.75 15.875 C-13.60046875 14.77929688 -13.4509375 13.68359375 -13.296875 12.5546875 C-13.19890625 11.71164063 -13.1009375 10.86859375 -13 10 C-12.01 11.32 -11.02 12.64 -10 14 C-9.67 13.01 -9.34 12.02 -9 11 C-7.33333333 9.33333333 -5.66666667 7.66666667 -4 6 C-2.56448944 4.04917795 -1.28947529 2.05360879 0 0 Z " fill="#CFD0D4" transform="translate(46,10)"/>
<path d="M0 0 C1.34771484 0.37898438 1.34771484 0.37898438 2.72265625 0.765625 C3.45355469 1.09046875 4.18445313 1.4153125 4.9375 1.75 C5.2675 2.74 5.5975 3.73 5.9375 4.75 C4.9475 5.245 4.9475 5.245 3.9375 5.75 C3.5653958 7.07303717 3.23119827 8.40737935 2.9375 9.75 C1.9375 10.75 1.9375 10.75 -1.66015625 10.84765625 C-3.14846867 10.8409822 -4.63676432 10.82902183 -6.125 10.8125 C-7.26291992 10.80573242 -7.26291992 10.80573242 -8.42382812 10.79882812 C-10.30341871 10.7870068 -12.18296899 10.76907078 -14.0625 10.75 C-14.47581041 6.24950884 -14.47581041 6.24950884 -12.6015625 3.984375 C-11.96992188 3.49453125 -11.33828125 3.0046875 -10.6875 2.5 C-10.06101562 1.99984375 -9.43453125 1.4996875 -8.7890625 0.984375 C-5.34529538 -1.47768475 -4.01929533 -1.17976438 0 0 Z " fill="#DDDDE0" transform="translate(14.0625,37.25)"/>
<path d="M0 0 C2 3 2 3 2 5 C2.66 5 3.32 5 4 5 C4.63019694 14.17286652 4.63019694 14.17286652 2 17.625 C1.01 18.305625 1.01 18.305625 0 19 C3.08809695 20.76462683 4.23312136 21 8 21 C8 21.66 8 22.32 8 23 C-1.14098209 24.69412868 -8.23718549 25.83502 -17 22 C-16.67 21.34 -16.34 20.68 -16 20 C-12.7 20 -9.4 20 -6 20 C-5.773125 19.071875 -5.54625 18.14375 -5.3125 17.1875 C-4 14 -4 14 -1.375 12.5 C-0.59125 12.005 0.1925 11.51 1 11 C1.41746608 7.87364791 1.41746608 7.87364791 1 5 C0.01 4.67 -0.98 4.34 -2 4 C-1.34 2.68 -0.68 1.36 0 0 Z " fill="#B5B7BC" transform="translate(29,14)"/>
<path d="M0 0 C0.66 0 1.32 0 2 0 C1.25749403 4.08378283 0.17076699 8.01939223 -1 12 C-0.05125 11.236875 0.8975 10.47375 1.875 9.6875 C2.67550781 9.04361328 2.67550781 9.04361328 3.4921875 8.38671875 C5.25292107 6.87729455 5.25292107 6.87729455 7 4 C7.99 4 8.98 4 10 4 C11.35439668 6.70879335 11.06501451 9.00933268 11 12 C10.34 11.67 9.68 11.34 9 11 C5.88794071 12.98512949 5.88794071 12.98512949 4.25 16.1875 C4.1675 16.785625 4.085 17.38375 4 18 C1.125 18.125 1.125 18.125 -2 18 C-2.66 17.34 -3.32 16.68 -4 16 C-3.34 15.34 -2.68 14.68 -2 14 C-2.33 13.34 -2.66 12.68 -3 12 C-3.06996014 10.29297265 -3.08440154 8.58331997 -3.0625 6.875 C-3.05347656 5.96492188 -3.04445313 5.05484375 -3.03515625 4.1171875 C-3.02355469 3.41851563 -3.01195313 2.71984375 -3 2 C-2.01 1.67 -1.02 1.34 0 1 C0 0.67 0 0.34 0 0 Z " fill="#D6D7D9" transform="translate(20,15)"/>
<path d="M0 0 C0 4.29 0 8.58 0 13 C-4.62 13 -9.24 13 -14 13 C-12 10 -12 10 -10 9 C-9.566875 8.236875 -9.13375 7.47375 -8.6875 6.6875 C-6.65608593 3.452285 -4.09187236 0 0 0 Z " fill="#BEBFC4" transform="translate(48,35)"/>
<path d="M0 0 C3.3 0 6.6 0 10 0 C9.67 0.99 9.34 1.98 9 3 C9.33 3.66 9.66 4.32 10 5 C9.34 5 8.68 5 8 5 C7.67 5.66 7.34 6.32 7 7 C6.34 7.66 5.68 8.32 5 9 C4.505 9.53625 4.01 10.0725 3.5 10.625 C2 12 2 12 0 12 C0 8.04 0 4.08 0 0 Z " fill="#F3F3F3" transform="translate(0,0)"/>
<path d="M0 0 C3.22914752 -0.02917228 6.45826083 -0.04685663 9.6875 -0.0625 C10.59951172 -0.07087891 11.51152344 -0.07925781 12.45117188 -0.08789062 C13.33740234 -0.09111328 14.22363281 -0.09433594 15.13671875 -0.09765625 C15.94842529 -0.10289307 16.76013184 -0.10812988 17.59643555 -0.11352539 C20.14864673 0.0070209 22.51026137 0.440051 25 1 C25 1.66 25 2.32 25 3 C15.85901791 4.69412868 8.76281451 5.83502 0 2 C0 1.34 0 0.68 0 0 Z " fill="#7B7C80" transform="translate(12,34)"/>
<path d="M0 0 C0 0.66 0 1.32 0 2 C-0.99 2.495 -0.99 2.495 -2 3 C-2.3721042 4.32303717 -2.70630173 5.65737935 -3 7 C-4 8 -4 8 -6.28515625 8.09765625 C-7.65994141 8.08025391 -7.65994141 8.08025391 -9.0625 8.0625 C-9.98160156 8.05347656 -10.90070312 8.04445313 -11.84765625 8.03515625 C-12.55792969 8.02355469 -13.26820312 8.01195312 -14 8 C-12.42853994 4.66850466 -10.78892837 2.45087645 -8 0 C-4.71023192 -1.09658936 -3.28696233 -0.79953138 0 0 Z " fill="#D7D7DA" transform="translate(20,40)"/>
<path d="M0 0 C0.66 0 1.32 0 2 0 C1.25749403 4.08378283 0.17076699 8.01939223 -1 12 C0.98 10.35 2.96 8.7 5 7 C5.33 7.99 5.66 8.98 6 10 C5.01 10 4.02 10 3 10 C2.87625 10.639375 2.7525 11.27875 2.625 11.9375 C2.41875 12.618125 2.2125 13.29875 2 14 C1.01 14.495 1.01 14.495 0 15 C-2.24606427 13.22555028 -2.95081002 12.41647515 -3.29296875 9.51953125 C-3.25816406 8.62621094 -3.22335938 7.73289062 -3.1875 6.8125 C-3.16042969 5.91144531 -3.13335938 5.01039062 -3.10546875 4.08203125 C-3.07066406 3.39496094 -3.03585938 2.70789063 -3 2 C-2.01 1.67 -1.02 1.34 0 1 C0 0.67 0 0.34 0 0 Z " fill="#8A8C8F" transform="translate(20,15)"/>
<path d="M0 0 C2.45976489 3.68964734 3.12465307 5.27428479 3.0625 9.625 C3.05347656 10.44226562 3.04445313 11.25953125 3.03515625 12.1015625 C3.02355469 12.72804688 3.01195312 13.35453125 3 14 C0 15.5 0 15.5 -3 17 C-3.66 16.34 -4.32 15.68 -5 15 C-4.195625 14.4225 -3.39125 13.845 -2.5625 13.25 C0.00516781 10.99546241 0.67160541 10.28394586 1 7 C1 6.34 1 5.68 1 5 C0.01 4.67 -0.98 4.34 -2 4 C-1.34 2.68 -0.68 1.36 0 0 Z " fill="#74777C" transform="translate(29,14)"/>
<path d="M0 0 C0.99 0.33 1.98 0.66 3 1 C3.25 3.25 3.25 3.25 3 6 C1.125 8.3125 1.125 8.3125 -1 10 C-1.66 10 -2.32 10 -3 10 C-3.36923077 4.58461538 -3.36923077 4.58461538 -1.5 1.625 C-1.005 1.08875 -0.51 0.5525 0 0 Z " fill="#DCDCDF" transform="translate(22,17)"/>
<path d="M0 0 C3.49234244 -0.09978121 6.59437148 0.22157062 10 1 C10 1.66 10 2.32 10 3 C6.37 3 2.74 3 -1 3 C-0.67 2.01 -0.34 1.02 0 0 Z " fill="#5E6064" transform="translate(27,34)"/>
<path d="M0 0 C0.99 0 1.98 0 3 0 C4.35439668 2.70879335 4.06501451 5.00933268 4 8 C2.68 7.67 1.36 7.34 0 7 C0 4.69 0 2.38 0 0 Z " fill="#BBBDC2" transform="translate(27,19)"/>
<path d="M0 0 C0.66 0 1.32 0 2 0 C1.32829194 3.8063457 0.27253436 7.35206816 -1 11 C-1.33 11 -1.66 11 -2 11 C-2.33 8.03 -2.66 5.06 -3 2 C-2.01 1.67 -1.02 1.34 0 1 C0 0.67 0 0.34 0 0 Z " fill="#ADADB0" transform="translate(20,15)"/>
<path d="M0 0 C1.68496298 0.96885372 3.35178756 1.96986723 5 3 C5 3.33 5 3.66 5 4 C2.125 4.125 2.125 4.125 -1 4 C-1.66 3.34 -2.32 2.68 -3 2 C-2.01 1.34 -1.02 0.68 0 0 Z " fill="#CDCED0" transform="translate(19,29)"/>
<path d="M0 0 C0.33 0.66 0.66 1.32 1 2 C1.66 2.33 2.32 2.66 3 3 C1 4 -1 5 -3 6 C-3.66 5.34 -4.32 4.68 -5 4 C-3.35 2.68 -1.7 1.36 0 0 Z " fill="#64676B" transform="translate(29,25)"/>
</svg>
